<mxfile host="65bd71144e">
    <diagram id="Nii93QJuHP6GY2YIdgYS" name="Page-1">
        <mxGraphModel dx="1449" dy="593" grid="1" gridSize="10" guides="1" tooltips="1" connect="1" arrows="1" fold="1" page="1" pageScale="1" pageWidth="850" pageHeight="1100" math="0" shadow="0">
            <root>
                <mxCell id="0"/>
                <mxCell id="1" parent="0"/>
                <mxCell id="10" value="TimeMinutes" style="text;html=1;strokeColor=none;fillColor=none;align=center;verticalAlign=middle;whiteSpace=wrap;rounded=0;" parent="1" vertex="1">
                    <mxGeometry x="40" y="40" width="60" height="30" as="geometry"/>
                </mxCell>
                <mxCell id="132" value="mgoto1" style="edgeStyle=none;html=1;exitX=1;exitY=0.5;exitDx=0;exitDy=0;entryX=0;entryY=0.5;entryDx=0;entryDy=0;" edge="1" parent="1" source="33" target="34">
                    <mxGeometry relative="1" as="geometry"/>
                </mxCell>
                <mxCell id="33" value="q0&lt;br&gt;TimeMinutes==0" style="ellipse;shape=doubleEllipse;html=1;dashed=0;whitespace=wrap;aspect=fixed;" parent="1" vertex="1">
                    <mxGeometry x="130" y="90" width="100" height="100" as="geometry"/>
                </mxCell>
                <mxCell id="136" value="mgoto2" style="edgeStyle=none;html=1;exitX=1;exitY=0.5;exitDx=0;exitDy=0;entryX=0;entryY=0.5;entryDx=0;entryDy=0;" edge="1" parent="1" source="34" target="133">
                    <mxGeometry relative="1" as="geometry"/>
                </mxCell>
                <mxCell id="34" value="q1&lt;br&gt;TimeMinutes==1" style="shape=ellipse;html=1;dashed=0;whitespace=wrap;aspect=fixed;perimeter=ellipsePerimeter;" parent="1" vertex="1">
                    <mxGeometry x="290" y="90" width="100" height="100" as="geometry"/>
                </mxCell>
                <mxCell id="137" value="mgoto3" style="edgeStyle=none;html=1;exitX=1;exitY=1;exitDx=0;exitDy=0;entryX=0;entryY=0;entryDx=0;entryDy=0;" edge="1" parent="1" source="133" target="134">
                    <mxGeometry relative="1" as="geometry"/>
                </mxCell>
                <mxCell id="133" value="q2&lt;br&gt;TimeMinutes==2" style="shape=ellipse;html=1;dashed=0;whitespace=wrap;aspect=fixed;perimeter=ellipsePerimeter;" vertex="1" parent="1">
                    <mxGeometry x="450" y="90" width="100" height="100" as="geometry"/>
                </mxCell>
                <mxCell id="138" value="mgoto4" style="edgeStyle=none;html=1;exitX=0;exitY=1;exitDx=0;exitDy=0;entryX=1;entryY=0;entryDx=0;entryDy=0;" edge="1" parent="1" source="134" target="139">
                    <mxGeometry relative="1" as="geometry">
                        <mxPoint x="530" y="360.0000000000001" as="targetPoint"/>
                    </mxGeometry>
                </mxCell>
                <mxCell id="134" value="q3&lt;br&gt;TimeMinutes==3" style="shape=ellipse;html=1;dashed=0;whitespace=wrap;aspect=fixed;perimeter=ellipsePerimeter;" vertex="1" parent="1">
                    <mxGeometry x="570" y="210" width="100" height="100" as="geometry"/>
                </mxCell>
                <mxCell id="141" value="mgoto14" style="edgeStyle=none;html=1;entryX=1;entryY=0.5;entryDx=0;entryDy=0;" edge="1" parent="1" target="135">
                    <mxGeometry relative="1" as="geometry">
                        <mxPoint x="300" y="380.0000000000001" as="targetPoint"/>
                        <mxPoint x="290" y="380" as="sourcePoint"/>
                    </mxGeometry>
                </mxCell>
                <mxCell id="142" value="mgoto0" style="edgeStyle=none;html=1;exitX=0.5;exitY=0;exitDx=0;exitDy=0;entryX=0.5;entryY=1;entryDx=0;entryDy=0;" edge="1" parent="1" source="135" target="33">
                    <mxGeometry relative="1" as="geometry"/>
                </mxCell>
                <mxCell id="135" value="q14&lt;br&gt;TimeMinutes==14" style="shape=ellipse;html=1;dashed=0;whitespace=wrap;aspect=fixed;perimeter=ellipsePerimeter;" vertex="1" parent="1">
                    <mxGeometry x="130" y="330" width="100" height="100" as="geometry"/>
                </mxCell>
                <mxCell id="140" value="mgoto5" style="edgeStyle=none;html=1;exitX=0;exitY=0.5;exitDx=0;exitDy=0;" edge="1" parent="1" source="139">
                    <mxGeometry relative="1" as="geometry">
                        <mxPoint x="390" y="380" as="targetPoint"/>
                    </mxGeometry>
                </mxCell>
                <mxCell id="139" value="q4&lt;br&gt;TimeMinutes==4" style="shape=ellipse;html=1;dashed=0;whitespace=wrap;aspect=fixed;perimeter=ellipsePerimeter;" vertex="1" parent="1">
                    <mxGeometry x="450" y="330" width="100" height="100" as="geometry"/>
                </mxCell>
                <mxCell id="143" value="..." style="text;html=1;strokeColor=none;fillColor=none;align=center;verticalAlign=middle;whiteSpace=wrap;rounded=0;" vertex="1" parent="1">
                    <mxGeometry x="310" y="365" width="60" height="30" as="geometry"/>
                </mxCell>
                <mxCell id="144" value="TimeHours" style="text;html=1;strokeColor=none;fillColor=none;align=center;verticalAlign=middle;whiteSpace=wrap;rounded=0;" vertex="1" parent="1">
                    <mxGeometry x="40" y="440" width="60" height="30" as="geometry"/>
                </mxCell>
                <mxCell id="145" value="mgoto0" style="edgeStyle=none;html=1;exitX=1;exitY=0.5;exitDx=0;exitDy=0;entryX=0;entryY=0.5;entryDx=0;entryDy=0;" edge="1" parent="1" source="146" target="148">
                    <mxGeometry relative="1" as="geometry"/>
                </mxCell>
                <mxCell id="146" value="q0&lt;br&gt;TimeHours==0" style="ellipse;shape=doubleEllipse;html=1;dashed=0;whitespace=wrap;aspect=fixed;" vertex="1" parent="1">
                    <mxGeometry x="130" y="490" width="100" height="100" as="geometry"/>
                </mxCell>
                <mxCell id="147" value="mgoto0" style="edgeStyle=none;html=1;exitX=1;exitY=0.5;exitDx=0;exitDy=0;entryX=0;entryY=0.5;entryDx=0;entryDy=0;" edge="1" parent="1" source="148" target="150">
                    <mxGeometry relative="1" as="geometry"/>
                </mxCell>
                <mxCell id="148" value="q1&lt;br&gt;TimeHours==1" style="shape=ellipse;html=1;dashed=0;whitespace=wrap;aspect=fixed;perimeter=ellipsePerimeter;" vertex="1" parent="1">
                    <mxGeometry x="290" y="490" width="100" height="100" as="geometry"/>
                </mxCell>
                <mxCell id="149" value="mgoto0" style="edgeStyle=none;html=1;exitX=1;exitY=1;exitDx=0;exitDy=0;entryX=0;entryY=0;entryDx=0;entryDy=0;" edge="1" parent="1" source="150" target="152">
                    <mxGeometry relative="1" as="geometry"/>
                </mxCell>
                <mxCell id="150" value="q2&lt;br&gt;TimeHours==2" style="shape=ellipse;html=1;dashed=0;whitespace=wrap;aspect=fixed;perimeter=ellipsePerimeter;" vertex="1" parent="1">
                    <mxGeometry x="450" y="490" width="100" height="100" as="geometry"/>
                </mxCell>
                <mxCell id="151" value="mgoto0" style="edgeStyle=none;html=1;exitX=0;exitY=1;exitDx=0;exitDy=0;entryX=1;entryY=0;entryDx=0;entryDy=0;" edge="1" parent="1" source="152" target="157">
                    <mxGeometry relative="1" as="geometry">
                        <mxPoint x="530" y="760.0000000000001" as="targetPoint"/>
                    </mxGeometry>
                </mxCell>
                <mxCell id="152" value="q3&lt;br&gt;TimeHours==3" style="shape=ellipse;html=1;dashed=0;whitespace=wrap;aspect=fixed;perimeter=ellipsePerimeter;" vertex="1" parent="1">
                    <mxGeometry x="570" y="610" width="100" height="100" as="geometry"/>
                </mxCell>
                <mxCell id="153" value="mgoto0" style="edgeStyle=none;html=1;entryX=1;entryY=0.5;entryDx=0;entryDy=0;exitX=0;exitY=0.5;exitDx=0;exitDy=0;" edge="1" parent="1" target="155" source="159">
                    <mxGeometry relative="1" as="geometry">
                        <mxPoint x="300" y="780.0000000000001" as="targetPoint"/>
                        <mxPoint x="270" y="780" as="sourcePoint"/>
                    </mxGeometry>
                </mxCell>
                <mxCell id="154" value="hgoto0" style="edgeStyle=none;html=1;exitX=0.5;exitY=0;exitDx=0;exitDy=0;entryX=0.5;entryY=1;entryDx=0;entryDy=0;" edge="1" parent="1" source="155" target="146">
                    <mxGeometry relative="1" as="geometry"/>
                </mxCell>
                <mxCell id="155" value="q6&lt;br&gt;TimeHours==0" style="shape=ellipse;html=1;dashed=0;whitespace=wrap;aspect=fixed;perimeter=ellipsePerimeter;" vertex="1" parent="1">
                    <mxGeometry x="130" y="730" width="100" height="100" as="geometry"/>
                </mxCell>
                <mxCell id="156" value="mgoto0" style="edgeStyle=none;html=1;exitX=0;exitY=0.5;exitDx=0;exitDy=0;entryX=1;entryY=0.5;entryDx=0;entryDy=0;" edge="1" parent="1" source="157" target="159">
                    <mxGeometry relative="1" as="geometry">
                        <mxPoint x="400" y="779.5" as="targetPoint"/>
                    </mxGeometry>
                </mxCell>
                <mxCell id="157" value="q4&lt;br&gt;TimeHours==4" style="shape=ellipse;html=1;dashed=0;whitespace=wrap;aspect=fixed;perimeter=ellipsePerimeter;" vertex="1" parent="1">
                    <mxGeometry x="450" y="730" width="100" height="100" as="geometry"/>
                </mxCell>
                <mxCell id="159" value="q5&lt;br&gt;TimeHours==5" style="shape=ellipse;html=1;dashed=0;whitespace=wrap;aspect=fixed;perimeter=ellipsePerimeter;" vertex="1" parent="1">
                    <mxGeometry x="290" y="730" width="100" height="100" as="geometry"/>
                </mxCell>
                <mxCell id="160" value="TimeDays" style="text;html=1;strokeColor=none;fillColor=none;align=center;verticalAlign=middle;whiteSpace=wrap;rounded=0;" vertex="1" parent="1">
                    <mxGeometry x="40" y="840" width="60" height="30" as="geometry"/>
                </mxCell>
                <mxCell id="161" value="hgoto0" style="edgeStyle=none;html=1;exitX=1;exitY=0.5;exitDx=0;exitDy=0;entryX=0;entryY=0.5;entryDx=0;entryDy=0;" edge="1" parent="1" source="162" target="164">
                    <mxGeometry relative="1" as="geometry"/>
                </mxCell>
                <mxCell id="162" value="q0&lt;br&gt;TimeDays==0" style="ellipse;shape=doubleEllipse;html=1;dashed=0;whitespace=wrap;aspect=fixed;" vertex="1" parent="1">
                    <mxGeometry x="50" y="890" width="100" height="100" as="geometry"/>
                </mxCell>
                <mxCell id="163" value="hgoto0" style="edgeStyle=none;html=1;exitX=1;exitY=0.5;exitDx=0;exitDy=0;entryX=0;entryY=0.5;entryDx=0;entryDy=0;" edge="1" parent="1" source="164" target="166">
                    <mxGeometry relative="1" as="geometry"/>
                </mxCell>
                <mxCell id="164" value="q1&lt;br&gt;TimeDays==1" style="shape=ellipse;html=1;dashed=0;whitespace=wrap;aspect=fixed;perimeter=ellipsePerimeter;" vertex="1" parent="1">
                    <mxGeometry x="200" y="890" width="100" height="100" as="geometry"/>
                </mxCell>
                <mxCell id="175" value="hgoto0" style="edgeStyle=none;html=1;exitX=1;exitY=0.5;exitDx=0;exitDy=0;" edge="1" parent="1" source="166">
                    <mxGeometry relative="1" as="geometry">
                        <mxPoint x="510" y="939.5" as="targetPoint"/>
                    </mxGeometry>
                </mxCell>
                <mxCell id="166" value="q2&lt;br&gt;TimeDays==2" style="shape=ellipse;html=1;dashed=0;whitespace=wrap;aspect=fixed;perimeter=ellipsePerimeter;" vertex="1" parent="1">
                    <mxGeometry x="360" y="890" width="100" height="100" as="geometry"/>
                </mxCell>
                <mxCell id="176" value="..." style="text;html=1;strokeColor=none;fillColor=none;align=center;verticalAlign=middle;whiteSpace=wrap;rounded=0;" vertex="1" parent="1">
                    <mxGeometry x="520" y="925" width="60" height="30" as="geometry"/>
                </mxCell>
                <mxCell id="177" value="q10&lt;br&gt;TimeDays==10" style="shape=ellipse;html=1;dashed=0;whitespace=wrap;aspect=fixed;perimeter=ellipsePerimeter;" vertex="1" parent="1">
                    <mxGeometry x="640" y="890" width="100" height="100" as="geometry"/>
                </mxCell>
                <mxCell id="178" value="hgoto0" style="edgeStyle=none;html=1;entryX=0;entryY=0.5;entryDx=0;entryDy=0;" edge="1" parent="1" target="177">
                    <mxGeometry relative="1" as="geometry">
                        <mxPoint x="520" y="949.5" as="targetPoint"/>
                        <mxPoint x="590" y="940" as="sourcePoint"/>
                    </mxGeometry>
                </mxCell>
                <mxCell id="179" value="idle" style="edgeStyle=none;html=1;exitX=1;exitY=0;exitDx=0;exitDy=0;entryX=1;entryY=1;entryDx=0;entryDy=0;" edge="1" parent="1" source="177" target="177">
                    <mxGeometry relative="1" as="geometry">
                        <Array as="points">
                            <mxPoint x="770" y="905"/>
                            <mxPoint x="770" y="940"/>
                            <mxPoint x="770" y="975"/>
                        </Array>
                    </mxGeometry>
                </mxCell>
            </root>
        </mxGraphModel>
    </diagram>
</mxfile>